<mxfile host="65bd71144e" modified="2021-03-04T19:26:03.855Z" agent="5.0 (X11; Linux x86_64) AppleWebKit/537.36 (KHTML, like Gecko) Code/1.53.2 Chrome/87.0.4280.141 Electron/11.2.1 Safari/537.36" version="14.2.4" etag="UQe1CecUBVQU5XanQJQR" type="embed" pages="2">
    <diagram id="DjPkidQq7ECFTdBNP6Rk" name="Flow">
        <mxGraphModel dx="1054" dy="429" grid="1" gridSize="10" guides="1" tooltips="1" connect="1" arrows="1" fold="1" page="1" pageScale="1" pageWidth="850" pageHeight="1100" math="0" shadow="0">
            <root>
                <mxCell id="0"/>
                <mxCell id="1" parent="0"/>
                <mxCell id="15" value="" style="rounded=0;whiteSpace=wrap;html=1;" vertex="1" parent="1">
                    <mxGeometry x="90" y="770" width="520" height="220" as="geometry"/>
                </mxCell>
                <mxCell id="2" value="Form" style="rounded=0;whiteSpace=wrap;html=1;" vertex="1" parent="1">
                    <mxGeometry x="150" y="870" width="120" height="60" as="geometry"/>
                </mxCell>
                <mxCell id="3" value="Text" style="rounded=0;whiteSpace=wrap;html=1;" vertex="1" parent="1">
                    <mxGeometry x="350" y="920" width="60" height="30" as="geometry"/>
                </mxCell>
                <mxCell id="4" value="Form" style="rounded=0;whiteSpace=wrap;html=1;" vertex="1" parent="1">
                    <mxGeometry x="350" y="850" width="70" height="30" as="geometry"/>
                </mxCell>
                <mxCell id="5" value="" style="endArrow=classic;html=1;exitX=1;exitY=0.5;exitDx=0;exitDy=0;entryX=0;entryY=0.5;entryDx=0;entryDy=0;" edge="1" parent="1" source="2" target="4">
                    <mxGeometry width="50" height="50" relative="1" as="geometry">
                        <mxPoint x="350" y="910" as="sourcePoint"/>
                        <mxPoint x="400" y="860" as="targetPoint"/>
                    </mxGeometry>
                </mxCell>
                <mxCell id="6" value="" style="endArrow=classic;html=1;exitX=1;exitY=0.5;exitDx=0;exitDy=0;entryX=0;entryY=0.5;entryDx=0;entryDy=0;" edge="1" parent="1" source="2" target="3">
                    <mxGeometry width="50" height="50" relative="1" as="geometry">
                        <mxPoint x="280" y="910" as="sourcePoint"/>
                        <mxPoint x="360" y="875" as="targetPoint"/>
                    </mxGeometry>
                </mxCell>
                <mxCell id="7" value="Text" style="rounded=0;whiteSpace=wrap;html=1;" vertex="1" parent="1">
                    <mxGeometry x="500" y="900" width="60" height="30" as="geometry"/>
                </mxCell>
                <mxCell id="8" value="Button" style="rounded=0;whiteSpace=wrap;html=1;" vertex="1" parent="1">
                    <mxGeometry x="470" y="800" width="60" height="30" as="geometry"/>
                </mxCell>
                <mxCell id="9" value="1. Login Return" style="text;html=1;strokeColor=none;fillColor=none;align=center;verticalAlign=middle;whiteSpace=wrap;rounded=0;" vertex="1" parent="1">
                    <mxGeometry x="220" y="850" width="110" height="20" as="geometry"/>
                </mxCell>
                <mxCell id="10" value="4. Login Return" style="text;html=1;strokeColor=none;fillColor=none;align=center;verticalAlign=middle;whiteSpace=wrap;rounded=0;" vertex="1" parent="1">
                    <mxGeometry x="230" y="930" width="100" height="20" as="geometry"/>
                </mxCell>
                <mxCell id="11" value="" style="endArrow=classic;html=1;entryX=0;entryY=0.5;entryDx=0;entryDy=0;exitX=1;exitY=0.5;exitDx=0;exitDy=0;" edge="1" parent="1" source="4" target="8">
                    <mxGeometry width="50" height="50" relative="1" as="geometry">
                        <mxPoint x="350" y="900" as="sourcePoint"/>
                        <mxPoint x="400" y="850" as="targetPoint"/>
                    </mxGeometry>
                </mxCell>
                <mxCell id="12" value="" style="endArrow=classic;html=1;entryX=0;entryY=0.5;entryDx=0;entryDy=0;exitX=1;exitY=0.5;exitDx=0;exitDy=0;" edge="1" parent="1" source="4" target="7">
                    <mxGeometry width="50" height="50" relative="1" as="geometry">
                        <mxPoint x="430" y="875" as="sourcePoint"/>
                        <mxPoint x="480" y="825" as="targetPoint"/>
                    </mxGeometry>
                </mxCell>
                <mxCell id="13" value="2. Department Return" style="text;html=1;strokeColor=none;fillColor=none;align=center;verticalAlign=middle;whiteSpace=wrap;rounded=0;" vertex="1" parent="1">
                    <mxGeometry x="330" y="810" width="130" height="20" as="geometry"/>
                </mxCell>
                <mxCell id="14" value="3. Department Return" style="text;html=1;strokeColor=none;fillColor=none;align=center;verticalAlign=middle;whiteSpace=wrap;rounded=0;" vertex="1" parent="1">
                    <mxGeometry x="350" y="890" width="120" height="20" as="geometry"/>
                </mxCell>
            </root>
        </mxGraphModel>
    </diagram>
    <diagram id="RNBYsUf8eM-7tCeqAJOo" name="Class Diagram">
        <mxGraphModel dx="1054" dy="429" grid="1" gridSize="10" guides="1" tooltips="1" connect="1" arrows="1" fold="1" page="1" pageScale="1" pageWidth="850" pageHeight="1100" math="0" shadow="0">
            <root>
                <mxCell id="pCKaxmcJBBw1i2sbQuPb-0"/>
                <mxCell id="pCKaxmcJBBw1i2sbQuPb-1" parent="pCKaxmcJBBw1i2sbQuPb-0"/>
                <mxCell id="pCKaxmcJBBw1i2sbQuPb-2" value="" style="rounded=0;whiteSpace=wrap;html=1;" vertex="1" parent="pCKaxmcJBBw1i2sbQuPb-1">
                    <mxGeometry x="530" y="680" width="620" height="390" as="geometry"/>
                </mxCell>
                <mxCell id="pCKaxmcJBBw1i2sbQuPb-3" value="Service" style="swimlane;fontStyle=1;align=center;verticalAlign=top;childLayout=stackLayout;horizontal=1;startSize=26;horizontalStack=0;resizeParent=1;resizeParentMax=0;resizeLast=0;collapsible=1;marginBottom=0;" vertex="1" parent="pCKaxmcJBBw1i2sbQuPb-1">
                    <mxGeometry x="820" y="870" width="160" height="182" as="geometry"/>
                </mxCell>
                <mxCell id="pCKaxmcJBBw1i2sbQuPb-4" value="+ name: string" style="text;strokeColor=none;fillColor=none;align=left;verticalAlign=top;spacingLeft=4;spacingRight=4;overflow=hidden;rotatable=0;points=[[0,0.5],[1,0.5]];portConstraint=eastwest;" vertex="1" parent="pCKaxmcJBBw1i2sbQuPb-3">
                    <mxGeometry y="26" width="160" height="26" as="geometry"/>
                </mxCell>
                <mxCell id="pCKaxmcJBBw1i2sbQuPb-5" value="+ className: string" style="text;strokeColor=none;fillColor=none;align=left;verticalAlign=top;spacingLeft=4;spacingRight=4;overflow=hidden;rotatable=0;points=[[0,0.5],[1,0.5]];portConstraint=eastwest;" vertex="1" parent="pCKaxmcJBBw1i2sbQuPb-3">
                    <mxGeometry y="52" width="160" height="26" as="geometry"/>
                </mxCell>
                <mxCell id="pCKaxmcJBBw1i2sbQuPb-6" value="+ serviceID: string" style="text;strokeColor=none;fillColor=none;align=left;verticalAlign=top;spacingLeft=4;spacingRight=4;overflow=hidden;rotatable=0;points=[[0,0.5],[1,0.5]];portConstraint=eastwest;" vertex="1" parent="pCKaxmcJBBw1i2sbQuPb-3">
                    <mxGeometry y="78" width="160" height="26" as="geometry"/>
                </mxCell>
                <mxCell id="pCKaxmcJBBw1i2sbQuPb-82" value="+ arguments: []" style="text;strokeColor=none;fillColor=none;align=left;verticalAlign=top;spacingLeft=4;spacingRight=4;overflow=hidden;rotatable=0;points=[[0,0.5],[1,0.5]];portConstraint=eastwest;" vertex="1" parent="pCKaxmcJBBw1i2sbQuPb-3">
                    <mxGeometry y="104" width="160" height="26" as="geometry"/>
                </mxCell>
                <mxCell id="pCKaxmcJBBw1i2sbQuPb-83" value="+ log: string" style="text;strokeColor=none;fillColor=none;align=left;verticalAlign=top;spacingLeft=4;spacingRight=4;overflow=hidden;rotatable=0;points=[[0,0.5],[1,0.5]];portConstraint=eastwest;" vertex="1" parent="pCKaxmcJBBw1i2sbQuPb-3">
                    <mxGeometry y="130" width="160" height="26" as="geometry"/>
                </mxCell>
                <mxCell id="pCKaxmcJBBw1i2sbQuPb-7" value="+ returnData: Object" style="text;strokeColor=none;fillColor=none;align=left;verticalAlign=top;spacingLeft=4;spacingRight=4;overflow=hidden;rotatable=0;points=[[0,0.5],[1,0.5]];portConstraint=eastwest;" vertex="1" parent="pCKaxmcJBBw1i2sbQuPb-3">
                    <mxGeometry y="156" width="160" height="26" as="geometry"/>
                </mxCell>
                <mxCell id="pCKaxmcJBBw1i2sbQuPb-8" value="" style="endArrow=open;endFill=1;endSize=12;html=1;exitX=1;exitY=0.5;exitDx=0;exitDy=0;" edge="1" parent="pCKaxmcJBBw1i2sbQuPb-1" source="pCKaxmcJBBw1i2sbQuPb-13">
                    <mxGeometry width="160" relative="1" as="geometry">
                        <mxPoint x="800" y="870" as="sourcePoint"/>
                        <mxPoint x="900" y="870" as="targetPoint"/>
                        <Array as="points">
                            <mxPoint x="900" y="835"/>
                        </Array>
                    </mxGeometry>
                </mxCell>
                <mxCell id="pCKaxmcJBBw1i2sbQuPb-9" value="data: contains unfolding data structure(unfolding complextype" style="shape=note;whiteSpace=wrap;html=1;size=14;verticalAlign=top;align=left;spacingTop=-6;" vertex="1" parent="pCKaxmcJBBw1i2sbQuPb-1">
                    <mxGeometry x="1020" y="930" width="110" height="60" as="geometry"/>
                </mxCell>
                <mxCell id="pCKaxmcJBBw1i2sbQuPb-10" value="" style="endArrow=none;dashed=1;html=1;dashPattern=1 3;strokeWidth=2;entryX=1;entryY=0.5;entryDx=0;entryDy=0;exitX=0;exitY=0.5;exitDx=0;exitDy=0;exitPerimeter=0;" edge="1" parent="pCKaxmcJBBw1i2sbQuPb-1" source="pCKaxmcJBBw1i2sbQuPb-9" target="pCKaxmcJBBw1i2sbQuPb-7">
                    <mxGeometry width="50" height="50" relative="1" as="geometry">
                        <mxPoint x="1060" y="970" as="sourcePoint"/>
                        <mxPoint x="920" y="830" as="targetPoint"/>
                    </mxGeometry>
                </mxCell>
                <mxCell id="pCKaxmcJBBw1i2sbQuPb-11" value="Task" style="swimlane;fontStyle=1;align=center;verticalAlign=top;childLayout=stackLayout;horizontal=1;startSize=26;horizontalStack=0;resizeParent=1;resizeParentMax=0;resizeLast=0;collapsible=1;marginBottom=0;" vertex="1" parent="pCKaxmcJBBw1i2sbQuPb-1">
                    <mxGeometry x="640" y="770" width="170" height="112" as="geometry"/>
                </mxCell>
                <mxCell id="pCKaxmcJBBw1i2sbQuPb-12" value="+ componentType: string" style="text;strokeColor=none;fillColor=none;align=left;verticalAlign=top;spacingLeft=4;spacingRight=4;overflow=hidden;rotatable=0;points=[[0,0.5],[1,0.5]];portConstraint=eastwest;" vertex="1" parent="pCKaxmcJBBw1i2sbQuPb-11">
                    <mxGeometry y="26" width="170" height="26" as="geometry"/>
                </mxCell>
                <mxCell id="pCKaxmcJBBw1i2sbQuPb-13" value="+ service: Service" style="text;strokeColor=none;fillColor=none;align=left;verticalAlign=top;spacingLeft=4;spacingRight=4;overflow=hidden;rotatable=0;points=[[0,0.5],[1,0.5]];portConstraint=eastwest;" vertex="1" parent="pCKaxmcJBBw1i2sbQuPb-11">
                    <mxGeometry y="52" width="170" height="26" as="geometry"/>
                </mxCell>
                <mxCell id="pCKaxmcJBBw1i2sbQuPb-14" value="" style="line;strokeWidth=1;fillColor=none;align=left;verticalAlign=middle;spacingTop=-1;spacingLeft=3;spacingRight=3;rotatable=0;labelPosition=right;points=[];portConstraint=eastwest;" vertex="1" parent="pCKaxmcJBBw1i2sbQuPb-11">
                    <mxGeometry y="78" width="170" height="8" as="geometry"/>
                </mxCell>
                <mxCell id="pCKaxmcJBBw1i2sbQuPb-15" value="+ getReturnData(): Object" style="text;strokeColor=none;fillColor=none;align=left;verticalAlign=top;spacingLeft=4;spacingRight=4;overflow=hidden;rotatable=0;points=[[0,0.5],[1,0.5]];portConstraint=eastwest;" vertex="1" parent="pCKaxmcJBBw1i2sbQuPb-11">
                    <mxGeometry y="86" width="170" height="26" as="geometry"/>
                </mxCell>
                <mxCell id="pCKaxmcJBBw1i2sbQuPb-16" value="form, input, &lt;br&gt;card ..." style="shape=note;whiteSpace=wrap;html=1;size=14;verticalAlign=top;align=left;spacingTop=-6;" vertex="1" parent="pCKaxmcJBBw1i2sbQuPb-1">
                    <mxGeometry x="540" y="854" width="81" height="28" as="geometry"/>
                </mxCell>
                <mxCell id="pCKaxmcJBBw1i2sbQuPb-17" value="" style="endArrow=none;dashed=1;html=1;dashPattern=1 3;strokeWidth=2;entryX=0;entryY=0.5;entryDx=0;entryDy=0;" edge="1" parent="pCKaxmcJBBw1i2sbQuPb-1" source="pCKaxmcJBBw1i2sbQuPb-16" target="pCKaxmcJBBw1i2sbQuPb-12">
                    <mxGeometry width="50" height="50" relative="1" as="geometry">
                        <mxPoint x="1070" y="980" as="sourcePoint"/>
                        <mxPoint x="990" y="997" as="targetPoint"/>
                    </mxGeometry>
                </mxCell>
                <mxCell id="pCKaxmcJBBw1i2sbQuPb-18" value="PipelineStorage" style="swimlane;fontStyle=1;align=center;verticalAlign=top;childLayout=stackLayout;horizontal=1;startSize=26;horizontalStack=0;resizeParent=1;resizeParentMax=0;resizeLast=0;collapsible=1;marginBottom=0;" vertex="1" parent="pCKaxmcJBBw1i2sbQuPb-1">
                    <mxGeometry x="880" y="700" width="170" height="86" as="geometry"/>
                </mxCell>
                <mxCell id="pCKaxmcJBBw1i2sbQuPb-19" value="+ tasks: Task[]" style="text;strokeColor=#6c8ebf;fillColor=#dae8fc;align=left;verticalAlign=top;spacingLeft=4;spacingRight=4;overflow=hidden;rotatable=0;points=[[0,0.5],[1,0.5]];portConstraint=eastwest;" vertex="1" parent="pCKaxmcJBBw1i2sbQuPb-18">
                    <mxGeometry y="26" width="170" height="26" as="geometry"/>
                </mxCell>
                <mxCell id="pCKaxmcJBBw1i2sbQuPb-20" value="+ servicePool: Service[]" style="text;strokeColor=none;fillColor=none;align=left;verticalAlign=top;spacingLeft=4;spacingRight=4;overflow=hidden;rotatable=0;points=[[0,0.5],[1,0.5]];portConstraint=eastwest;" vertex="1" parent="pCKaxmcJBBw1i2sbQuPb-18">
                    <mxGeometry y="52" width="170" height="26" as="geometry"/>
                </mxCell>
                <mxCell id="pCKaxmcJBBw1i2sbQuPb-21" value="" style="line;strokeWidth=1;fillColor=none;align=left;verticalAlign=middle;spacingTop=-1;spacingLeft=3;spacingRight=3;rotatable=0;labelPosition=right;points=[];portConstraint=eastwest;" vertex="1" parent="pCKaxmcJBBw1i2sbQuPb-18">
                    <mxGeometry y="78" width="170" height="8" as="geometry"/>
                </mxCell>
                <mxCell id="pCKaxmcJBBw1i2sbQuPb-23" value="" style="endArrow=open;endFill=1;endSize=12;html=1;exitX=0;exitY=0.5;exitDx=0;exitDy=0;entryX=0.5;entryY=0;entryDx=0;entryDy=0;" edge="1" parent="pCKaxmcJBBw1i2sbQuPb-1" source="pCKaxmcJBBw1i2sbQuPb-19" target="pCKaxmcJBBw1i2sbQuPb-11">
                    <mxGeometry width="160" relative="1" as="geometry">
                        <mxPoint x="720" y="830" as="sourcePoint"/>
                        <mxPoint x="880" y="830" as="targetPoint"/>
                        <Array as="points">
                            <mxPoint x="725" y="739"/>
                        </Array>
                    </mxGeometry>
                </mxCell>
                <mxCell id="pCKaxmcJBBw1i2sbQuPb-24" value="" style="endArrow=open;endFill=1;endSize=12;html=1;exitX=0.5;exitY=1;exitDx=0;exitDy=0;entryX=0.75;entryY=0;entryDx=0;entryDy=0;" edge="1" parent="pCKaxmcJBBw1i2sbQuPb-1" source="pCKaxmcJBBw1i2sbQuPb-18" target="pCKaxmcJBBw1i2sbQuPb-3">
                    <mxGeometry width="160" relative="1" as="geometry">
                        <mxPoint x="971.94" y="802.6759999999999" as="sourcePoint"/>
                        <mxPoint x="920" y="820" as="targetPoint"/>
                        <Array as="points">
                            <mxPoint x="965" y="840"/>
                            <mxPoint x="940" y="840"/>
                        </Array>
                    </mxGeometry>
                </mxCell>
                <mxCell id="pCKaxmcJBBw1i2sbQuPb-25" value="" style="group" vertex="1" connectable="0" parent="pCKaxmcJBBw1i2sbQuPb-1">
                    <mxGeometry x="1520" y="370" width="740" height="860" as="geometry"/>
                </mxCell>
                <mxCell id="pCKaxmcJBBw1i2sbQuPb-26" value="" style="rounded=0;whiteSpace=wrap;html=1;" vertex="1" parent="pCKaxmcJBBw1i2sbQuPb-25">
                    <mxGeometry y="-50" width="740" height="910" as="geometry"/>
                </mxCell>
                <mxCell id="pCKaxmcJBBw1i2sbQuPb-27" value="PipelineStorage" style="swimlane;fontStyle=1;align=center;verticalAlign=top;childLayout=stackLayout;horizontal=1;startSize=26;horizontalStack=0;resizeParent=1;resizeParentMax=0;resizeLast=0;collapsible=1;marginBottom=0;" vertex="1" parent="pCKaxmcJBBw1i2sbQuPb-25">
                    <mxGeometry x="10" y="190.8125" width="170" height="141.5625" as="geometry"/>
                </mxCell>
                <mxCell id="pCKaxmcJBBw1i2sbQuPb-28" value="+ tasks: Map&lt;String,Task&gt;" style="text;strokeColor=none;fillColor=none;align=left;verticalAlign=top;spacingLeft=4;spacingRight=4;overflow=hidden;rotatable=0;points=[[0,0.5],[1,0.5]];portConstraint=eastwest;" vertex="1" parent="pCKaxmcJBBw1i2sbQuPb-27">
                    <mxGeometry y="26" width="170" height="34.9375" as="geometry"/>
                </mxCell>
                <mxCell id="pCKaxmcJBBw1i2sbQuPb-29" value="+ operationPool: Operation[]" style="text;strokeColor=none;fillColor=none;align=left;verticalAlign=top;spacingLeft=4;spacingRight=4;overflow=hidden;rotatable=0;points=[[0,0.5],[1,0.5]];portConstraint=eastwest;" vertex="1" parent="pCKaxmcJBBw1i2sbQuPb-27">
                    <mxGeometry y="60.9375" width="170" height="34.9375" as="geometry"/>
                </mxCell>
                <mxCell id="pCKaxmcJBBw1i2sbQuPb-30" value="" style="line;strokeWidth=1;fillColor=none;align=left;verticalAlign=middle;spacingTop=-1;spacingLeft=3;spacingRight=3;rotatable=0;labelPosition=right;points=[];portConstraint=eastwest;" vertex="1" parent="pCKaxmcJBBw1i2sbQuPb-27">
                    <mxGeometry y="95.875" width="170" height="10.75" as="geometry"/>
                </mxCell>
                <mxCell id="pCKaxmcJBBw1i2sbQuPb-31" value="+ method(type): type" style="text;strokeColor=none;fillColor=none;align=left;verticalAlign=top;spacingLeft=4;spacingRight=4;overflow=hidden;rotatable=0;points=[[0,0.5],[1,0.5]];portConstraint=eastwest;" vertex="1" parent="pCKaxmcJBBw1i2sbQuPb-27">
                    <mxGeometry y="106.625" width="170" height="34.9375" as="geometry"/>
                </mxCell>
                <mxCell id="pCKaxmcJBBw1i2sbQuPb-32" value="PageUICDL" style="swimlane;fontStyle=1;align=center;verticalAlign=top;childLayout=stackLayout;horizontal=1;startSize=26;horizontalStack=0;resizeParent=1;resizeParentMax=0;resizeLast=0;collapsible=1;marginBottom=0;" vertex="1" parent="pCKaxmcJBBw1i2sbQuPb-25">
                    <mxGeometry x="200" y="190.8125" width="170" height="351.1875" as="geometry"/>
                </mxCell>
                <mxCell id="pCKaxmcJBBw1i2sbQuPb-33" value="+ id: String" style="text;strokeColor=none;fillColor=none;align=left;verticalAlign=top;spacingLeft=4;spacingRight=4;overflow=hidden;rotatable=0;points=[[0,0.5],[1,0.5]];portConstraint=eastwest;" vertex="1" parent="pCKaxmcJBBw1i2sbQuPb-32">
                    <mxGeometry y="26" width="170" height="34.9375" as="geometry"/>
                </mxCell>
                <mxCell id="pCKaxmcJBBw1i2sbQuPb-34" value="+ selector: String" style="text;strokeColor=none;fillColor=none;align=left;verticalAlign=top;spacingLeft=4;spacingRight=4;overflow=hidden;rotatable=0;points=[[0,0.5],[1,0.5]];portConstraint=eastwest;" vertex="1" parent="pCKaxmcJBBw1i2sbQuPb-32">
                    <mxGeometry y="60.9375" width="170" height="34.9375" as="geometry"/>
                </mxCell>
                <mxCell id="pCKaxmcJBBw1i2sbQuPb-35" value="+ category: String" style="text;strokeColor=none;fillColor=none;align=left;verticalAlign=top;spacingLeft=4;spacingRight=4;overflow=hidden;rotatable=0;points=[[0,0.5],[1,0.5]];portConstraint=eastwest;" vertex="1" parent="pCKaxmcJBBw1i2sbQuPb-32">
                    <mxGeometry y="95.875" width="170" height="34.9375" as="geometry"/>
                </mxCell>
                <mxCell id="pCKaxmcJBBw1i2sbQuPb-36" value="+ style: Map&lt;String,String&gt;" style="text;strokeColor=none;fillColor=none;align=left;verticalAlign=top;spacingLeft=4;spacingRight=4;overflow=hidden;rotatable=0;points=[[0,0.5],[1,0.5]];portConstraint=eastwest;" vertex="1" parent="pCKaxmcJBBw1i2sbQuPb-32">
                    <mxGeometry y="130.8125" width="170" height="34.9375" as="geometry"/>
                </mxCell>
                <mxCell id="pCKaxmcJBBw1i2sbQuPb-37" value="+ body: LayoutComponent" style="text;strokeColor=none;fillColor=none;align=left;verticalAlign=top;spacingLeft=4;spacingRight=4;overflow=hidden;rotatable=0;points=[[0,0.5],[1,0.5]];portConstraint=eastwest;" vertex="1" parent="pCKaxmcJBBw1i2sbQuPb-32">
                    <mxGeometry y="165.75" width="170" height="34.9375" as="geometry"/>
                </mxCell>
                <mxCell id="pCKaxmcJBBw1i2sbQuPb-38" value="+ header: LayoutComponent" style="text;strokeColor=none;fillColor=none;align=left;verticalAlign=top;spacingLeft=4;spacingRight=4;overflow=hidden;rotatable=0;points=[[0,0.5],[1,0.5]];portConstraint=eastwest;" vertex="1" parent="pCKaxmcJBBw1i2sbQuPb-32">
                    <mxGeometry y="200.6875" width="170" height="34.9375" as="geometry"/>
                </mxCell>
                <mxCell id="pCKaxmcJBBw1i2sbQuPb-39" value="+ sidebar: LayoutComponent" style="text;strokeColor=none;fillColor=none;align=left;verticalAlign=top;spacingLeft=4;spacingRight=4;overflow=hidden;rotatable=0;points=[[0,0.5],[1,0.5]];portConstraint=eastwest;" vertex="1" parent="pCKaxmcJBBw1i2sbQuPb-32">
                    <mxGeometry y="235.625" width="170" height="34.9375" as="geometry"/>
                </mxCell>
                <mxCell id="pCKaxmcJBBw1i2sbQuPb-40" value="+ asidbar: LayoutComponent" style="text;strokeColor=none;fillColor=none;align=left;verticalAlign=top;spacingLeft=4;spacingRight=4;overflow=hidden;rotatable=0;points=[[0,0.5],[1,0.5]];portConstraint=eastwest;" vertex="1" parent="pCKaxmcJBBw1i2sbQuPb-32">
                    <mxGeometry y="270.5625" width="170" height="34.9375" as="geometry"/>
                </mxCell>
                <mxCell id="pCKaxmcJBBw1i2sbQuPb-41" value="+ footer: LayoutComponent" style="text;strokeColor=none;fillColor=none;align=left;verticalAlign=top;spacingLeft=4;spacingRight=4;overflow=hidden;rotatable=0;points=[[0,0.5],[1,0.5]];portConstraint=eastwest;" vertex="1" parent="pCKaxmcJBBw1i2sbQuPb-32">
                    <mxGeometry y="305.5" width="170" height="34.9375" as="geometry"/>
                </mxCell>
                <mxCell id="pCKaxmcJBBw1i2sbQuPb-42" value="" style="line;strokeWidth=1;fillColor=none;align=left;verticalAlign=middle;spacingTop=-1;spacingLeft=3;spacingRight=3;rotatable=0;labelPosition=right;points=[];portConstraint=eastwest;" vertex="1" parent="pCKaxmcJBBw1i2sbQuPb-32">
                    <mxGeometry y="340.4375" width="170" height="10.75" as="geometry"/>
                </mxCell>
                <mxCell id="pCKaxmcJBBw1i2sbQuPb-43" value="GraphStorage" style="swimlane;fontStyle=1;align=center;verticalAlign=top;childLayout=stackLayout;horizontal=1;startSize=26;horizontalStack=0;resizeParent=1;resizeParentMax=0;resizeLast=0;collapsible=1;marginBottom=0;" vertex="1" parent="pCKaxmcJBBw1i2sbQuPb-25">
                    <mxGeometry x="400" y="190.8125" width="320" height="630.6875" as="geometry"/>
                </mxCell>
                <mxCell id="pCKaxmcJBBw1i2sbQuPb-44" value="+ vertexStorages: Map&lt;String,VetexStorage&gt;" style="text;strokeColor=none;fillColor=none;align=left;verticalAlign=top;spacingLeft=4;spacingRight=4;overflow=hidden;rotatable=0;points=[[0,0.5],[1,0.5]];portConstraint=eastwest;" vertex="1" parent="pCKaxmcJBBw1i2sbQuPb-43">
                    <mxGeometry y="26" width="320" height="34.9375" as="geometry"/>
                </mxCell>
                <mxCell id="pCKaxmcJBBw1i2sbQuPb-45" value="+ edgeStorages: Map&lt;String,EdgeStorage&gt;" style="text;strokeColor=none;fillColor=none;align=left;verticalAlign=top;spacingLeft=4;spacingRight=4;overflow=hidden;rotatable=0;points=[[0,0.5],[1,0.5]];portConstraint=eastwest;" vertex="1" parent="pCKaxmcJBBw1i2sbQuPb-43">
                    <mxGeometry y="60.9375" width="320" height="34.9375" as="geometry"/>
                </mxCell>
                <mxCell id="pCKaxmcJBBw1i2sbQuPb-46" value="+ editor: mxEditor" style="text;strokeColor=none;fillColor=none;align=left;verticalAlign=top;spacingLeft=4;spacingRight=4;overflow=hidden;rotatable=0;points=[[0,0.5],[1,0.5]];portConstraint=eastwest;" vertex="1" parent="pCKaxmcJBBw1i2sbQuPb-43">
                    <mxGeometry y="95.875" width="320" height="34.9375" as="geometry"/>
                </mxCell>
                <mxCell id="pCKaxmcJBBw1i2sbQuPb-47" value="+ id: String" style="text;strokeColor=none;fillColor=none;align=left;verticalAlign=top;spacingLeft=4;spacingRight=4;overflow=hidden;rotatable=0;points=[[0,0.5],[1,0.5]];portConstraint=eastwest;" vertex="1" parent="pCKaxmcJBBw1i2sbQuPb-43">
                    <mxGeometry y="130.8125" width="320" height="34.9375" as="geometry"/>
                </mxCell>
                <mxCell id="pCKaxmcJBBw1i2sbQuPb-48" value="+ createComponentStrategy: ICreateComponentStrategy" style="text;strokeColor=none;fillColor=none;align=left;verticalAlign=top;spacingLeft=4;spacingRight=4;overflow=hidden;rotatable=0;points=[[0,0.5],[1,0.5]];portConstraint=eastwest;" vertex="1" parent="pCKaxmcJBBw1i2sbQuPb-43">
                    <mxGeometry y="165.75" width="320" height="34.9375" as="geometry"/>
                </mxCell>
                <mxCell id="pCKaxmcJBBw1i2sbQuPb-49" value="" style="line;strokeWidth=1;fillColor=none;align=left;verticalAlign=middle;spacingTop=-1;spacingLeft=3;spacingRight=3;rotatable=0;labelPosition=right;points=[];portConstraint=eastwest;" vertex="1" parent="pCKaxmcJBBw1i2sbQuPb-43">
                    <mxGeometry y="200.6875" width="320" height="10.75" as="geometry"/>
                </mxCell>
                <mxCell id="pCKaxmcJBBw1i2sbQuPb-50" value="+ initializeEditor(element,configurationFilePath)" style="text;strokeColor=none;fillColor=none;align=left;verticalAlign=top;spacingLeft=4;spacingRight=4;overflow=hidden;rotatable=0;points=[[0,0.5],[1,0.5]];portConstraint=eastwest;" vertex="1" parent="pCKaxmcJBBw1i2sbQuPb-43">
                    <mxGeometry y="211.4375" width="320" height="34.9375" as="geometry"/>
                </mxCell>
                <mxCell id="pCKaxmcJBBw1i2sbQuPb-51" value="+ syncComponentsStyle()" style="text;strokeColor=none;fillColor=none;align=left;verticalAlign=top;spacingLeft=4;spacingRight=4;overflow=hidden;rotatable=0;points=[[0,0.5],[1,0.5]];portConstraint=eastwest;" vertex="1" parent="pCKaxmcJBBw1i2sbQuPb-43">
                    <mxGeometry y="246.375" width="320" height="34.9375" as="geometry"/>
                </mxCell>
                <mxCell id="pCKaxmcJBBw1i2sbQuPb-52" value="+ syncComponentsProperty()" style="text;strokeColor=none;fillColor=none;align=left;verticalAlign=top;spacingLeft=4;spacingRight=4;overflow=hidden;rotatable=0;points=[[0,0.5],[1,0.5]];portConstraint=eastwest;" vertex="1" parent="pCKaxmcJBBw1i2sbQuPb-43">
                    <mxGeometry y="281.3125" width="320" height="34.9375" as="geometry"/>
                </mxCell>
                <mxCell id="pCKaxmcJBBw1i2sbQuPb-53" value="+ createComponent(uiComponent, parent,x?,y?)" style="text;strokeColor=none;fillColor=none;align=left;verticalAlign=top;spacingLeft=4;spacingRight=4;overflow=hidden;rotatable=0;points=[[0,0.5],[1,0.5]];portConstraint=eastwest;" vertex="1" parent="pCKaxmcJBBw1i2sbQuPb-43">
                    <mxGeometry y="316.25" width="320" height="34.9375" as="geometry"/>
                </mxCell>
                <mxCell id="pCKaxmcJBBw1i2sbQuPb-54" value="+ setStrategy(strategy:ICreateComponentStrategy)" style="text;strokeColor=none;fillColor=none;align=left;verticalAlign=top;spacingLeft=4;spacingRight=4;overflow=hidden;rotatable=0;points=[[0,0.5],[1,0.5]];portConstraint=eastwest;" vertex="1" parent="pCKaxmcJBBw1i2sbQuPb-43">
                    <mxGeometry y="351.1875" width="320" height="34.9375" as="geometry"/>
                </mxCell>
                <mxCell id="pCKaxmcJBBw1i2sbQuPb-55" value="+ insertVertex(vertexStorage:VertexStorage)" style="text;strokeColor=none;fillColor=none;align=left;verticalAlign=top;spacingLeft=4;spacingRight=4;overflow=hidden;rotatable=0;points=[[0,0.5],[1,0.5]];portConstraint=eastwest;" vertex="1" parent="pCKaxmcJBBw1i2sbQuPb-43">
                    <mxGeometry y="386.125" width="320" height="34.9375" as="geometry"/>
                </mxCell>
                <mxCell id="pCKaxmcJBBw1i2sbQuPb-56" value="+ setStrategy(strategy:ICreateComponentStrategy)" style="text;strokeColor=none;fillColor=none;align=left;verticalAlign=top;spacingLeft=4;spacingRight=4;overflow=hidden;rotatable=0;points=[[0,0.5],[1,0.5]];portConstraint=eastwest;" vertex="1" parent="pCKaxmcJBBw1i2sbQuPb-43">
                    <mxGeometry y="421.0625" width="320" height="34.9375" as="geometry"/>
                </mxCell>
                <mxCell id="pCKaxmcJBBw1i2sbQuPb-57" value="+ getGraph()" style="text;strokeColor=none;fillColor=none;align=left;verticalAlign=top;spacingLeft=4;spacingRight=4;overflow=hidden;rotatable=0;points=[[0,0.5],[1,0.5]];portConstraint=eastwest;" vertex="1" parent="pCKaxmcJBBw1i2sbQuPb-43">
                    <mxGeometry y="456" width="320" height="34.9375" as="geometry"/>
                </mxCell>
                <mxCell id="pCKaxmcJBBw1i2sbQuPb-58" value="+ getGraphModel()" style="text;strokeColor=none;fillColor=none;align=left;verticalAlign=top;spacingLeft=4;spacingRight=4;overflow=hidden;rotatable=0;points=[[0,0.5],[1,0.5]];portConstraint=eastwest;" vertex="1" parent="pCKaxmcJBBw1i2sbQuPb-43">
                    <mxGeometry y="490.9375" width="320" height="34.9375" as="geometry"/>
                </mxCell>
                <mxCell id="pCKaxmcJBBw1i2sbQuPb-59" value="+ getModified(): Boolean" style="text;strokeColor=none;fillColor=none;align=left;verticalAlign=top;spacingLeft=4;spacingRight=4;overflow=hidden;rotatable=0;points=[[0,0.5],[1,0.5]];portConstraint=eastwest;" vertex="1" parent="pCKaxmcJBBw1i2sbQuPb-43">
                    <mxGeometry y="525.875" width="320" height="34.9375" as="geometry"/>
                </mxCell>
                <mxCell id="pCKaxmcJBBw1i2sbQuPb-60" value="+ setModified(modified:Boolean)" style="text;strokeColor=none;fillColor=none;align=left;verticalAlign=top;spacingLeft=4;spacingRight=4;overflow=hidden;rotatable=0;points=[[0,0.5],[1,0.5]];portConstraint=eastwest;" vertex="1" parent="pCKaxmcJBBw1i2sbQuPb-43">
                    <mxGeometry y="560.8125" width="320" height="34.9375" as="geometry"/>
                </mxCell>
                <mxCell id="pCKaxmcJBBw1i2sbQuPb-61" value="+ findVertexStorageByVertexID(id:String): VertexStorage" style="text;strokeColor=none;fillColor=none;align=left;verticalAlign=top;spacingLeft=4;spacingRight=4;overflow=hidden;rotatable=0;points=[[0,0.5],[1,0.5]];portConstraint=eastwest;" vertex="1" parent="pCKaxmcJBBw1i2sbQuPb-43">
                    <mxGeometry y="595.75" width="320" height="34.9375" as="geometry"/>
                </mxCell>
                <mxCell id="pCKaxmcJBBw1i2sbQuPb-62" value="" style="endArrow=classic;html=1;entryX=0.5;entryY=0;entryDx=0;entryDy=0;" edge="1" parent="pCKaxmcJBBw1i2sbQuPb-25" target="pCKaxmcJBBw1i2sbQuPb-27">
                    <mxGeometry width="50" height="50" relative="1" as="geometry">
                        <mxPoint x="328" y="82" as="sourcePoint"/>
                        <mxPoint x="240" y="120.9375" as="targetPoint"/>
                    </mxGeometry>
                </mxCell>
                <mxCell id="pCKaxmcJBBw1i2sbQuPb-63" value="" style="endArrow=classic;html=1;exitX=0.5;exitY=1;exitDx=0;exitDy=0;entryX=0.5;entryY=0;entryDx=0;entryDy=0;" edge="1" parent="pCKaxmcJBBw1i2sbQuPb-25" source="pCKaxmcJBBw1i2sbQuPb-65" target="pCKaxmcJBBw1i2sbQuPb-43">
                    <mxGeometry width="50" height="50" relative="1" as="geometry">
                        <mxPoint x="285" y="94.0625" as="sourcePoint"/>
                        <mxPoint x="295" y="204.25" as="targetPoint"/>
                    </mxGeometry>
                </mxCell>
                <mxCell id="pCKaxmcJBBw1i2sbQuPb-64" value="" style="endArrow=classic;html=1;exitX=0.5;exitY=1;exitDx=0;exitDy=0;" edge="1" parent="pCKaxmcJBBw1i2sbQuPb-25" source="pCKaxmcJBBw1i2sbQuPb-65" target="pCKaxmcJBBw1i2sbQuPb-32">
                    <mxGeometry width="50" height="50" relative="1" as="geometry">
                        <mxPoint x="285" y="94.0625" as="sourcePoint"/>
                        <mxPoint x="105" y="204.25" as="targetPoint"/>
                    </mxGeometry>
                </mxCell>
                <mxCell id="pCKaxmcJBBw1i2sbQuPb-65" value="Store" style="swimlane;fontStyle=1;align=center;verticalAlign=top;childLayout=stackLayout;horizontal=1;startSize=26;horizontalStack=0;resizeParent=1;resizeParentMax=0;resizeLast=0;collapsible=1;marginBottom=0;" vertex="1" parent="pCKaxmcJBBw1i2sbQuPb-25">
                    <mxGeometry x="170" y="-30" width="310" height="112" as="geometry"/>
                </mxCell>
                <mxCell id="pCKaxmcJBBw1i2sbQuPb-66" value="+ externalRepresentation: Map&lt;pageID,GraphStorage&gt;" style="text;strokeColor=none;fillColor=none;align=left;verticalAlign=top;spacingLeft=4;spacingRight=4;overflow=hidden;rotatable=0;points=[[0,0.5],[1,0.5]];portConstraint=eastwest;" vertex="1" parent="pCKaxmcJBBw1i2sbQuPb-65">
                    <mxGeometry y="26" width="310" height="26" as="geometry"/>
                </mxCell>
                <mxCell id="pCKaxmcJBBw1i2sbQuPb-67" value="+ internalRepresentation: PageUICDL[]" style="text;strokeColor=none;fillColor=none;align=left;verticalAlign=top;spacingLeft=4;spacingRight=4;overflow=hidden;rotatable=0;points=[[0,0.5],[1,0.5]];portConstraint=eastwest;" vertex="1" parent="pCKaxmcJBBw1i2sbQuPb-65">
                    <mxGeometry y="52" width="310" height="26" as="geometry"/>
                </mxCell>
                <mxCell id="pCKaxmcJBBw1i2sbQuPb-68" value="+ pipelineStorage: PipelineStorage" style="text;strokeColor=none;fillColor=none;align=left;verticalAlign=top;spacingLeft=4;spacingRight=4;overflow=hidden;rotatable=0;points=[[0,0.5],[1,0.5]];portConstraint=eastwest;" vertex="1" parent="pCKaxmcJBBw1i2sbQuPb-65">
                    <mxGeometry y="78" width="310" height="26" as="geometry"/>
                </mxCell>
                <mxCell id="pCKaxmcJBBw1i2sbQuPb-69" value="" style="line;strokeWidth=1;fillColor=none;align=left;verticalAlign=middle;spacingTop=-1;spacingLeft=3;spacingRight=3;rotatable=0;labelPosition=right;points=[];portConstraint=eastwest;" vertex="1" parent="pCKaxmcJBBw1i2sbQuPb-65">
                    <mxGeometry y="104" width="310" height="8" as="geometry"/>
                </mxCell>
                <mxCell id="pCKaxmcJBBw1i2sbQuPb-70" value="PipelineStorageBuilder" style="swimlane;fontStyle=1;align=center;verticalAlign=top;childLayout=stackLayout;horizontal=1;startSize=26;horizontalStack=0;resizeParent=1;resizeParentMax=0;resizeLast=0;collapsible=1;marginBottom=0;" vertex="1" parent="pCKaxmcJBBw1i2sbQuPb-1">
                    <mxGeometry x="2370" y="340" width="160" height="86" as="geometry"/>
                </mxCell>
                <mxCell id="pCKaxmcJBBw1i2sbQuPb-71" value="+ field: type" style="text;strokeColor=none;fillColor=none;align=left;verticalAlign=top;spacingLeft=4;spacingRight=4;overflow=hidden;rotatable=0;points=[[0,0.5],[1,0.5]];portConstraint=eastwest;" vertex="1" parent="pCKaxmcJBBw1i2sbQuPb-70">
                    <mxGeometry y="26" width="160" height="26" as="geometry"/>
                </mxCell>
                <mxCell id="pCKaxmcJBBw1i2sbQuPb-72" value="" style="line;strokeWidth=1;fillColor=none;align=left;verticalAlign=middle;spacingTop=-1;spacingLeft=3;spacingRight=3;rotatable=0;labelPosition=right;points=[];portConstraint=eastwest;" vertex="1" parent="pCKaxmcJBBw1i2sbQuPb-70">
                    <mxGeometry y="52" width="160" height="8" as="geometry"/>
                </mxCell>
                <mxCell id="pCKaxmcJBBw1i2sbQuPb-73" value="+ build()" style="text;strokeColor=none;fillColor=none;align=left;verticalAlign=top;spacingLeft=4;spacingRight=4;overflow=hidden;rotatable=0;points=[[0,0.5],[1,0.5]];portConstraint=eastwest;" vertex="1" parent="pCKaxmcJBBw1i2sbQuPb-70">
                    <mxGeometry y="60" width="160" height="26" as="geometry"/>
                </mxCell>
                <mxCell id="pCKaxmcJBBw1i2sbQuPb-74" value="PageUICDLBuilder" style="swimlane;fontStyle=1;align=center;verticalAlign=top;childLayout=stackLayout;horizontal=1;startSize=26;horizontalStack=0;resizeParent=1;resizeParentMax=0;resizeLast=0;collapsible=1;marginBottom=0;" vertex="1" parent="pCKaxmcJBBw1i2sbQuPb-1">
                    <mxGeometry x="2560" y="340" width="160" height="86" as="geometry"/>
                </mxCell>
                <mxCell id="pCKaxmcJBBw1i2sbQuPb-75" value="+ field: type" style="text;strokeColor=none;fillColor=none;align=left;verticalAlign=top;spacingLeft=4;spacingRight=4;overflow=hidden;rotatable=0;points=[[0,0.5],[1,0.5]];portConstraint=eastwest;" vertex="1" parent="pCKaxmcJBBw1i2sbQuPb-74">
                    <mxGeometry y="26" width="160" height="26" as="geometry"/>
                </mxCell>
                <mxCell id="pCKaxmcJBBw1i2sbQuPb-76" value="" style="line;strokeWidth=1;fillColor=none;align=left;verticalAlign=middle;spacingTop=-1;spacingLeft=3;spacingRight=3;rotatable=0;labelPosition=right;points=[];portConstraint=eastwest;" vertex="1" parent="pCKaxmcJBBw1i2sbQuPb-74">
                    <mxGeometry y="52" width="160" height="8" as="geometry"/>
                </mxCell>
                <mxCell id="pCKaxmcJBBw1i2sbQuPb-77" value="+ method(type): type" style="text;strokeColor=none;fillColor=none;align=left;verticalAlign=top;spacingLeft=4;spacingRight=4;overflow=hidden;rotatable=0;points=[[0,0.5],[1,0.5]];portConstraint=eastwest;" vertex="1" parent="pCKaxmcJBBw1i2sbQuPb-74">
                    <mxGeometry y="60" width="160" height="26" as="geometry"/>
                </mxCell>
                <mxCell id="pCKaxmcJBBw1i2sbQuPb-78" value="GraphStorageBuilder" style="swimlane;fontStyle=1;align=center;verticalAlign=top;childLayout=stackLayout;horizontal=1;startSize=26;horizontalStack=0;resizeParent=1;resizeParentMax=0;resizeLast=0;collapsible=1;marginBottom=0;" vertex="1" parent="pCKaxmcJBBw1i2sbQuPb-1">
                    <mxGeometry x="2740" y="340" width="160" height="86" as="geometry"/>
                </mxCell>
                <mxCell id="pCKaxmcJBBw1i2sbQuPb-79" value="+ field: type" style="text;strokeColor=none;fillColor=none;align=left;verticalAlign=top;spacingLeft=4;spacingRight=4;overflow=hidden;rotatable=0;points=[[0,0.5],[1,0.5]];portConstraint=eastwest;" vertex="1" parent="pCKaxmcJBBw1i2sbQuPb-78">
                    <mxGeometry y="26" width="160" height="26" as="geometry"/>
                </mxCell>
                <mxCell id="pCKaxmcJBBw1i2sbQuPb-80" value="" style="line;strokeWidth=1;fillColor=none;align=left;verticalAlign=middle;spacingTop=-1;spacingLeft=3;spacingRight=3;rotatable=0;labelPosition=right;points=[];portConstraint=eastwest;" vertex="1" parent="pCKaxmcJBBw1i2sbQuPb-78">
                    <mxGeometry y="52" width="160" height="8" as="geometry"/>
                </mxCell>
                <mxCell id="pCKaxmcJBBw1i2sbQuPb-81" value="+ method(type): type" style="text;strokeColor=none;fillColor=none;align=left;verticalAlign=top;spacingLeft=4;spacingRight=4;overflow=hidden;rotatable=0;points=[[0,0.5],[1,0.5]];portConstraint=eastwest;" vertex="1" parent="pCKaxmcJBBw1i2sbQuPb-78">
                    <mxGeometry y="60" width="160" height="26" as="geometry"/>
                </mxCell>
            </root>
        </mxGraphModel>
    </diagram>
</mxfile>